<mxfile host="app.diagrams.net" modified="2022-10-11T09:04:36.968Z" agent="5.0 (Windows NT 10.0; Win64; x64) AppleWebKit/537.36 (KHTML, like Gecko) Chrome/106.0.0.0 Safari/537.36" etag="-qp0FcPS4y6e9nqQlNUe" version="20.4.0" type="github">
  <diagram id="EJx0xrHUJyeSvX-ayofs" name="Page-1">
    <mxGraphModel dx="1384" dy="741" grid="1" gridSize="10" guides="1" tooltips="1" connect="1" arrows="1" fold="1" page="1" pageScale="1" pageWidth="850" pageHeight="1100" math="0" shadow="0">
      <root>
        <mxCell id="0" />
        <mxCell id="1" parent="0" />
        <mxCell id="vB3-fDHM89W5TPVttGp3-1" value="admin1" style="shape=umlActor;verticalLabelPosition=bottom;verticalAlign=top;html=1;outlineConnect=0;" vertex="1" parent="1">
          <mxGeometry x="47" y="224" width="30" height="60" as="geometry" />
        </mxCell>
        <mxCell id="vB3-fDHM89W5TPVttGp3-3" value="make new brand named &quot;brand1&quot;" style="ellipse;whiteSpace=wrap;html=1;" vertex="1" parent="1">
          <mxGeometry x="80" y="234" width="270" height="40" as="geometry" />
        </mxCell>
        <mxCell id="vB3-fDHM89W5TPVttGp3-41" value="" style="endArrow=none;html=1;rounded=0;" edge="1" parent="1">
          <mxGeometry width="50" height="50" relative="1" as="geometry">
            <mxPoint x="440" y="860" as="sourcePoint" />
            <mxPoint x="440" y="140" as="targetPoint" />
          </mxGeometry>
        </mxCell>
        <mxCell id="vB3-fDHM89W5TPVttGp3-42" value="Admin-api" style="text;strokeColor=none;fillColor=none;html=1;fontSize=24;fontStyle=1;verticalAlign=middle;align=center;" vertex="1" parent="1">
          <mxGeometry x="470" y="140" width="100" height="40" as="geometry" />
        </mxCell>
        <mxCell id="vB3-fDHM89W5TPVttGp3-43" value="White-label-api" style="text;strokeColor=none;fillColor=none;html=1;fontSize=24;fontStyle=1;verticalAlign=middle;align=center;" vertex="1" parent="1">
          <mxGeometry x="490" y="490" width="100" height="40" as="geometry" />
        </mxCell>
        <mxCell id="vB3-fDHM89W5TPVttGp3-44" value="" style="endArrow=classic;html=1;rounded=0;exitX=1;exitY=0.5;exitDx=0;exitDy=0;exitPerimeter=0;" edge="1" parent="1" source="vB3-fDHM89W5TPVttGp3-3">
          <mxGeometry width="50" height="50" relative="1" as="geometry">
            <mxPoint x="270" y="370" as="sourcePoint" />
            <mxPoint x="510" y="254" as="targetPoint" />
          </mxGeometry>
        </mxCell>
        <mxCell id="vB3-fDHM89W5TPVttGp3-45" value="" style="curved=1;endArrow=classic;html=1;rounded=0;" edge="1" parent="1">
          <mxGeometry width="50" height="50" relative="1" as="geometry">
            <mxPoint x="520" y="270" as="sourcePoint" />
            <mxPoint x="790" y="510" as="targetPoint" />
            <Array as="points">
              <mxPoint x="650" y="330" />
              <mxPoint x="530" y="420" />
            </Array>
          </mxGeometry>
        </mxCell>
        <mxCell id="vB3-fDHM89W5TPVttGp3-46" value="api hook" style="text;html=1;strokeColor=none;fillColor=none;align=center;verticalAlign=middle;whiteSpace=wrap;rounded=0;strokeWidth=4;" vertex="1" parent="1">
          <mxGeometry x="590" y="370" width="70" height="30" as="geometry" />
        </mxCell>
        <mxCell id="vB3-fDHM89W5TPVttGp3-47" value="brand1" style="shape=cylinder3;whiteSpace=wrap;html=1;boundedLbl=1;backgroundOutline=1;size=15;fillColor=#FFFFFF;rotation=-15;" vertex="1" parent="1">
          <mxGeometry x="660" y="690" width="60" height="120" as="geometry" />
        </mxCell>
        <mxCell id="vB3-fDHM89W5TPVttGp3-48" value="tenant" style="shape=cylinder3;whiteSpace=wrap;html=1;boundedLbl=1;backgroundOutline=1;size=15;" vertex="1" parent="1">
          <mxGeometry x="660" y="570" width="60" height="60" as="geometry" />
        </mxCell>
        <mxCell id="vB3-fDHM89W5TPVttGp3-49" value="" style="endArrow=none;html=1;rounded=0;" edge="1" parent="1">
          <mxGeometry width="50" height="50" relative="1" as="geometry">
            <mxPoint x="810" y="790" as="sourcePoint" />
            <mxPoint x="810" y="520" as="targetPoint" />
          </mxGeometry>
        </mxCell>
        <mxCell id="vB3-fDHM89W5TPVttGp3-50" value="" style="endArrow=classic;html=1;rounded=0;" edge="1" parent="1">
          <mxGeometry width="50" height="50" relative="1" as="geometry">
            <mxPoint x="810" y="610" as="sourcePoint" />
            <mxPoint x="730" y="610" as="targetPoint" />
          </mxGeometry>
        </mxCell>
        <mxCell id="vB3-fDHM89W5TPVttGp3-51" value="" style="endArrow=classic;html=1;rounded=0;" edge="1" parent="1">
          <mxGeometry width="50" height="50" relative="1" as="geometry">
            <mxPoint x="810" y="749.52" as="sourcePoint" />
            <mxPoint x="730" y="749.52" as="targetPoint" />
          </mxGeometry>
        </mxCell>
        <mxCell id="vB3-fDHM89W5TPVttGp3-52" value="register new brand" style="text;html=1;strokeColor=none;fillColor=none;align=center;verticalAlign=middle;whiteSpace=wrap;rounded=0;" vertex="1" parent="1">
          <mxGeometry x="743" y="613" width="60" height="30" as="geometry" />
        </mxCell>
        <mxCell id="vB3-fDHM89W5TPVttGp3-53" value="create DB" style="text;html=1;strokeColor=none;fillColor=none;align=center;verticalAlign=middle;whiteSpace=wrap;rounded=0;" vertex="1" parent="1">
          <mxGeometry x="743" y="750" width="60" height="30" as="geometry" />
        </mxCell>
        <mxCell id="vB3-fDHM89W5TPVttGp3-55" value="" style="ellipse;whiteSpace=wrap;html=1;aspect=fixed;fillColor=#E1D5E7;" vertex="1" parent="1">
          <mxGeometry x="507" y="238" width="36" height="36" as="geometry" />
        </mxCell>
        <mxCell id="vB3-fDHM89W5TPVttGp3-56" value="" style="ellipse;whiteSpace=wrap;html=1;aspect=fixed;fillColor=#E1D5E7;" vertex="1" parent="1">
          <mxGeometry x="790" y="514" width="36" height="36" as="geometry" />
        </mxCell>
      </root>
    </mxGraphModel>
  </diagram>
</mxfile>
